<svg width="638" height="165" viewBox="0 0 638 165" fill="none" xmlns="http://www.w3.org/2000/svg">
<path d="M185.85 82.5C185.85 74.9467 187.537 68.2 190.91 62.26C194.357 56.2467 199.013 51.59 204.88 48.29C210.82 44.9167 217.457 43.23 224.79 43.23C233.37 43.23 240.887 45.43 247.34 49.83C253.793 54.23 258.303 60.3167 260.87 68.09H243.16C241.4 64.4233 238.907 61.6733 235.68 59.84C232.527 58.0067 228.86 57.09 224.68 57.09C220.207 57.09 216.21 58.1533 212.69 60.28C209.243 62.3333 206.53 65.2667 204.55 69.08C202.643 72.8933 201.69 77.3667 201.69 82.5C201.69 87.56 202.643 92.0333 204.55 95.92C206.53 99.7333 209.243 102.703 212.69 104.83C216.21 106.883 220.207 107.91 224.68 107.91C228.86 107.91 232.527 106.993 235.68 105.16C238.907 103.253 241.4 100.467 243.16 96.8H260.87C258.303 104.647 253.793 110.77 247.34 115.17C240.96 119.497 233.443 121.66 224.79 121.66C217.457 121.66 210.82 120.01 204.88 116.71C199.013 113.337 194.357 108.68 190.91 102.74C187.537 96.8 185.85 90.0533 185.85 82.5ZM337.714 44.22V121H322.314V88.33H289.424V121H274.024V44.22H289.424V75.79H322.314V44.22H337.714ZM399.951 106.37H369.371L364.311 121H348.141L375.751 44.11H393.681L421.291 121H405.011L399.951 106.37ZM395.771 94.05L384.661 61.93L373.551 94.05H395.771ZM471.211 121L454.271 91.08H447.011V121H431.611V44.22H460.431C466.371 44.22 471.431 45.2833 475.611 47.41C479.791 49.4633 482.908 52.2867 484.961 55.88C487.088 59.4 488.151 63.36 488.151 67.76C488.151 72.82 486.685 77.4033 483.751 81.51C480.818 85.5433 476.455 88.33 470.661 89.87L489.031 121H471.211ZM447.011 79.53H459.881C464.061 79.53 467.178 78.54 469.231 76.56C471.285 74.5067 472.311 71.6833 472.311 68.09C472.311 64.57 471.285 61.8567 469.231 59.95C467.178 57.97 464.061 56.98 459.881 56.98H447.011V79.53ZM555.54 67.32C553.78 64.0933 551.36 61.6367 548.28 59.95C545.2 58.2633 541.607 57.42 537.5 57.42C532.954 57.42 528.92 58.4467 525.4 60.5C521.88 62.5533 519.13 65.4867 517.15 69.3C515.17 73.1133 514.18 77.5133 514.18 82.5C514.18 87.6333 515.17 92.1067 517.15 95.92C519.204 99.7333 522.027 102.667 525.62 104.72C529.214 106.773 533.394 107.8 538.16 107.8C544.027 107.8 548.83 106.26 552.57 103.18C556.31 100.027 558.767 95.6633 559.94 90.09H533.54V78.32H575.12V91.74C574.094 97.0933 571.894 102.043 568.52 106.59C565.147 111.137 560.784 114.803 555.43 117.59C550.15 120.303 544.21 121.66 537.61 121.66C530.204 121.66 523.494 120.01 517.48 116.71C511.54 113.337 506.847 108.68 503.4 102.74C500.027 96.8 498.34 90.0533 498.34 82.5C498.34 74.9467 500.027 68.2 503.4 62.26C506.847 56.2467 511.54 51.59 517.48 48.29C523.494 44.9167 530.167 43.23 537.5 43.23C546.154 43.23 553.67 45.3567 560.05 49.61C566.43 53.79 570.83 59.6933 573.25 67.32H555.54ZM601.914 56.65V75.9H627.764V88.11H601.914V108.46H631.064V121H586.514V44.11H631.064V56.65H601.914Z" fill="#3EBF80"/>
<path d="M9.35303 15C7.86123 15.006 6.43288 15.6039 5.38214 16.6623C4.3314 17.7206 3.74431 19.1527 3.75 20.6437L3.60352 34.2C2.54372 34.608 1.63229 35.327 0.989104 36.2624C0.34592 37.1979 0.00110159 38.306 0 39.441V50.6843C0 60.0533 6.38073 68.0207 15 70.4918V125.64C15 139.026 25.9802 150 39.375 150H125.625C139.02 150 150 139.026 150 125.64V39.441C150 26.0542 139.02 15.0806 125.625 15.0806H48.75V26.3239H125.625C132.938 26.3239 138.75 32.1327 138.75 39.441V125.64C138.75 132.948 132.938 138.757 125.625 138.757H39.375C32.0623 138.757 26.25 132.948 26.25 125.64V70.4918C34.8693 68.0207 41.25 60.0533 41.25 50.6843V39.441C41.2483 38.2799 40.8869 37.1477 40.2154 36.2001C39.544 35.2525 38.5954 34.5359 37.5 34.1488V20.7022C37.5105 19.9573 37.3728 19.2177 37.0949 18.5264C36.8169 17.8351 36.4043 17.2059 35.8809 16.6754C35.3575 16.1449 34.7339 15.7236 34.0462 15.4361C33.3585 15.1486 32.6205 15.0005 31.875 15.0005C31.1295 15.0005 30.3915 15.1486 29.7038 15.4361C29.0161 15.7236 28.3925 16.1449 27.8691 16.6754C27.3457 17.2059 26.9331 17.8351 26.6551 18.5264C26.3772 19.2177 26.2395 19.9573 26.25 20.7022V33.8194H14.8535L15 20.7608C15.0185 20.0091 14.886 19.2613 14.6103 18.5617C14.3345 17.8621 13.9212 17.2249 13.3947 16.6877C12.8681 16.1506 12.2392 15.7245 11.545 15.4346C10.8507 15.1447 10.1054 14.997 9.35303 15Z" fill="#3EBF80"/>
<path d="M111.981 87.5251H88.9754L82.7816 111.017C82.0737 113.686 80.2746 115.021 77.3842 115.021H72.8716C69.4503 115.021 68.0935 113.627 68.8014 110.839L74.8182 87.5251H54.7327C51.8423 87.5251 50.751 86.1311 51.4589 83.3429L52.6976 78.0929C52.9336 76.8471 53.376 76.0166 54.0249 75.6014C54.7327 75.1861 55.6765 74.9785 56.8563 74.9785H78.092L83.3125 55.3132C84.0793 52.6437 85.908 51.309 88.7984 51.309H93.311C96.6733 51.309 98.0005 52.703 97.2927 55.4912L92.2492 74.9785H114.547C115.609 74.9785 116.434 75.3344 117.024 76.0463C117.614 76.7582 117.791 77.7963 117.555 79.1607L116.67 83.6988C116.08 86.2497 114.517 87.5251 111.981 87.5251Z" fill="#3EBF80"/>
</svg>
