<svg width="546" height="165" viewBox="0 0 546 165" fill="none" xmlns="http://www.w3.org/2000/svg">
<path d="M61.49 60.83C61.49 66.11 59.6933 70.3633 56.1 73.59C52.5067 76.7433 47.8133 78.76 42.02 79.64V79.97C48.9867 80.7767 54.3033 82.7933 57.97 86.02C61.71 89.2467 63.58 93.4633 63.58 98.67C63.58 103.29 62.37 107.36 59.95 110.88C57.53 114.4 53.9 117.15 49.06 119.13C44.22 121.11 38.2067 122.1 31.02 122.1C25.74 122.1 20.9367 121.733 16.61 121C12.2833 120.34 8.47 119.277 5.17 117.81V105.71C7.44333 106.81 9.93667 107.763 12.65 108.57C15.4367 109.303 18.2233 109.89 21.01 110.33C23.87 110.697 26.5467 110.88 29.04 110.88C36.0067 110.88 41.14 109.78 44.44 107.58C47.74 105.307 49.39 102.117 49.39 98.01C49.39 93.7567 47.1533 90.6767 42.68 88.77C38.28 86.79 32.2667 85.8 24.64 85.8H15.84V74.69H23.87C29.7367 74.69 34.3933 74.2133 37.84 73.26C41.2867 72.3067 43.7433 70.95 45.21 69.19C46.75 67.3567 47.52 65.23 47.52 62.81C47.52 59.6567 46.2367 57.2 43.67 55.44C41.1033 53.6067 37.4367 52.69 32.67 52.69C28.27 52.69 24.3467 53.3133 20.9 54.56C17.4533 55.7333 14.19 57.2733 11.11 59.18L4.84 49.72C7.33333 48.1067 10.01 46.6767 12.87 45.43C15.8033 44.11 19.03 43.12 22.55 42.46C26.07 41.7267 29.92 41.36 34.1 41.36C39.9667 41.36 44.9167 42.2033 48.95 43.89C53.0567 45.5767 56.1733 47.8867 58.3 50.82C60.4267 53.68 61.49 57.0167 61.49 60.83ZM127.49 121L120.34 100.21H90.75L83.71 121H68.75L97.57 42.13H113.63L142.45 121H127.49ZM109.89 67.87C109.597 66.8433 109.157 65.45 108.57 63.69C107.983 61.93 107.397 60.1333 106.81 58.3C106.297 56.3933 105.893 54.8167 105.6 53.57C105.233 55.0367 104.757 56.7233 104.17 58.63C103.657 60.5367 103.143 62.3333 102.63 64.02C102.19 65.7067 101.823 66.99 101.53 67.87L94.6 88.11H116.71L109.89 67.87ZM176.209 42.46C186.402 42.46 193.809 44.5867 198.429 48.84C203.122 53.0933 205.469 58.96 205.469 66.44C205.469 69.8133 204.955 73.04 203.929 76.12C202.902 79.1267 201.179 81.84 198.759 84.26C196.339 86.68 193.149 88.5867 189.189 89.98C185.302 91.3733 180.462 92.07 174.669 92.07H166.859V121H152.779V42.46H176.209ZM175.329 54.12H166.859V80.41H173.239C177.052 80.41 180.279 79.97 182.919 79.09C185.632 78.1367 187.685 76.67 189.079 74.69C190.472 72.71 191.169 70.1433 191.169 66.99C191.169 62.6633 189.885 59.4367 187.319 57.31C184.752 55.1833 180.755 54.12 175.329 54.12ZM246.184 89.98L227.044 121H211.204L233.424 86.57C231.078 85.6167 228.768 84.2967 226.494 82.61C224.221 80.9233 222.351 78.6133 220.884 75.68C219.491 72.7467 218.794 69.08 218.794 64.68C218.794 57.4933 221.324 51.9933 226.384 48.18C231.518 44.3667 238.851 42.46 248.384 42.46H272.584V121H258.504V89.98H246.184ZM248.824 54.12C245.451 54.12 242.591 54.5233 240.244 55.33C237.971 56.0633 236.211 57.2733 234.964 58.96C233.718 60.6467 233.094 62.8833 233.094 65.67C233.094 69.63 234.414 72.7467 237.054 75.02C239.768 77.22 243.838 78.32 249.264 78.32H258.504V54.12H248.824ZM351.154 42.46V109.01H361.494V143H347.854V121H296.924V143H283.284V109.01H289.334C291.608 104.757 293.771 100.173 295.824 95.26C297.951 90.2733 299.858 84.9933 301.544 79.42C303.304 73.8467 304.808 67.98 306.054 61.82C307.374 55.5867 308.364 49.1333 309.024 42.46H351.154ZM320.464 54.45C320.024 58.41 319.291 62.7367 318.264 67.43C317.238 72.1233 315.991 76.9267 314.524 81.84C313.131 86.7533 311.554 91.5567 309.794 96.25C308.034 100.87 306.164 105.123 304.184 109.01H337.184V54.45H320.464Z" fill="#3EBF80"/>
<path d="M405.353 15C403.861 15.006 402.433 15.6039 401.382 16.6623C400.331 17.7206 399.744 19.1527 399.75 20.6437L399.604 34.2C398.544 34.608 397.632 35.327 396.989 36.2624C396.346 37.1979 396.001 38.306 396 39.441V50.6843C396 60.0533 402.381 68.0207 411 70.4918V125.64C411 139.026 421.98 150 435.375 150H521.625C535.02 150 546 139.026 546 125.64V39.441C546 26.0542 535.02 15.0806 521.625 15.0806H444.75V26.3239H521.625C528.938 26.3239 534.75 32.1327 534.75 39.441V125.64C534.75 132.948 528.938 138.757 521.625 138.757H435.375C428.062 138.757 422.25 132.948 422.25 125.64V70.4918C430.869 68.0207 437.25 60.0533 437.25 50.6843V39.441C437.248 38.2799 436.887 37.1477 436.215 36.2001C435.544 35.2525 434.595 34.5359 433.5 34.1488V20.7022C433.511 19.9573 433.373 19.2177 433.095 18.5264C432.817 17.8351 432.404 17.2059 431.881 16.6754C431.358 16.1449 430.734 15.7236 430.046 15.4361C429.358 15.1486 428.62 15.0005 427.875 15.0005C427.13 15.0005 426.392 15.1486 425.704 15.4361C425.016 15.7236 424.392 16.1449 423.869 16.6754C423.346 17.2059 422.933 17.8351 422.655 18.5264C422.377 19.2177 422.239 19.9573 422.25 20.7022V33.8194H410.854L411 20.7608C411.019 20.0091 410.886 19.2613 410.61 18.5617C410.335 17.8621 409.921 17.2249 409.395 16.6877C408.868 16.1506 408.239 15.7245 407.545 15.4346C406.851 15.1447 406.105 14.997 405.353 15Z" fill="#3EBF80"/>
<path d="M507.981 87.5251H484.975L478.782 111.017C478.074 113.686 476.275 115.021 473.384 115.021H468.872C465.45 115.021 464.094 113.627 464.801 110.839L470.818 87.5251H450.733C447.842 87.5251 446.751 86.1311 447.459 83.3429L448.698 78.0929C448.934 76.8471 449.376 76.0166 450.025 75.6014C450.733 75.1861 451.677 74.9785 452.856 74.9785H474.092L479.312 55.3132C480.079 52.6437 481.908 51.309 484.798 51.309H489.311C492.673 51.309 494.001 52.703 493.293 55.4912L488.249 74.9785H510.547C511.609 74.9785 512.434 75.3344 513.024 76.0463C513.614 76.7582 513.791 77.7963 513.555 79.1607L512.67 83.6988C512.08 86.2497 510.517 87.5251 507.981 87.5251Z" fill="#3EBF80"/>
</svg>
