<svg xmlns="http://www.w3.org/2000/svg" viewBox="0 0 28 40" fill="none">
  <path d="M4.2 17.4L0 20.1l4.2 2.6v-5.3z" fill="#5B57A2"/>
  <path d="M14 12.3L4.2 6.2v11.2L14 23.5V12.3z" fill="#D90751"/>
  <path d="M14 12.3l9.8-6.1v11.2L14 23.5V12.3z" fill="#FAB718"/>
  <path d="M23.8 17.4L28 20.1l-4.2 2.6v-5.3z" fill="#ED6F26"/>
  <path d="M14 27.7l-9.8-6.1v11.2L14 39V27.7z" fill="#63B22F"/>
  <path d="M14 27.7l9.8-6.1v11.2L14 39V27.7z" fill="#1487C9"/>
  <path d="M14 1l-9.8 6.1L14 13.2 23.8 7.1 14 1z" fill="#017F36"/>
  <path d="M4.2 6.2L14 12.3V23.5L4.2 17.4V6.2z" fill="#984995"/>
  <path d="M23.8 6.2L14 12.3V23.5l9.8-6.1V6.2z" fill="#F58F1D"/>
</svg>